<?xml version="1.0" encoding="UTF-8" standalone="no"?>
<!DOCTYPE svg PUBLIC "-//W3C//DTD SVG 1.1//EN" "http://www.w3.org/Graphics/SVG/1.1/DTD/svg11.dtd">
<svg width="100%" height="100%" viewBox="0 0 24 24" version="1.1" xmlns="http://www.w3.org/2000/svg" xmlns:xlink="http://www.w3.org/1999/xlink" xml:space="preserve" xmlns:serif="http://www.serif.com/" style="fill-rule:evenodd;clip-rule:evenodd;stroke-linejoin:round;stroke-miterlimit:2;">
    <g>
        <path d="M22.185,16.74C21.594,16.02 20.283,16.161 19.594,15.537C18.755,14.778 18.178,14.277 19.396,13.703C20.261,13.294 21.234,12.985 21.902,12.302C22.283,11.911 22.332,11.421 22.018,10.953C21.497,10.172 20.316,9.98 19.471,10.254C18.729,10.494 17.693,11.539 16.928,10.802C16.556,10.443 16.685,9.819 16.764,9.37C16.865,8.8 16.976,8.302 16.757,7.744C16.481,7.042 15.786,6.416 15.04,6.934C14.881,7.044 14.772,7.199 14.698,7.376C14.514,7.82 14.547,8.41 14.556,8.828C14.578,9.896 14.671,10.963 14.727,12.029C14.819,13.773 14.861,15.553 14.22,17.21C13.806,18.28 12.507,20.787 14.559,20.99C15.536,21.086 15.914,20.25 16.027,19.406C16.075,19.052 15.86,17.686 16.353,17.554C16.703,17.459 17.121,18.174 17.247,18.427C17.648,19.234 17.77,20.148 18.071,20.993C18.422,21.979 19.678,22.297 20.454,21.695C21.186,21.128 21.562,20.058 21.91,19.233C22.172,18.612 22.653,17.724 22.363,17.037C22.315,16.924 22.255,16.826 22.185,16.74Z" style="fill:rgb(195,78,121);fill-rule:nonzero;"/>
        <path d="M11.722,11.736C10.752,11.31 5.44,11.006 6.544,9.485C7.649,7.964 10.685,9.667 11.722,9.728C12.76,9.789 13.064,9.288 13.338,8.139C13.612,6.99 13.137,6.014 12.273,5.834C12.273,5.834 10.122,5.347 8.52,5.226C6.918,5.104 5.458,5.043 3.328,5.53C1.199,6.017 0.408,6.564 0.895,8.39C1.381,10.215 2.641,13.257 6.544,13.623C10.447,13.988 10.691,14.905 9.961,15.389C9.231,15.874 6.553,15.752 5.519,15.448C4.484,15.144 1.819,13.688 1.661,15.39C1.592,16.136 1.353,17.156 1.757,17.851C1.757,17.851 1.993,18.572 4.264,19.18C6.441,19.763 8.272,20.501 11.056,18.997C11.183,18.932 11.307,18.862 11.426,18.788L11.427,18.787C12.636,18.039 13.447,16.803 13.33,15.083C13.185,12.953 12.693,12.162 11.722,11.736Z" style="fill:rgb(195,78,121);fill-rule:nonzero;"/>
        <path d="M13.003,4.674C13.003,4.674 12.902,2.867 13.206,2.583C13.51,2.299 14.322,2.056 15.011,2.076C15.701,2.096 15.153,3.192 15.62,2.969C16.086,2.745 15.843,2.096 16.309,1.873C16.776,1.65 17.141,1.549 17.547,1.752C17.952,1.954 17.831,3.313 17.81,3.8C17.79,4.287 17.912,5.301 17.364,5.301C16.816,5.301 17.1,4.551 16.552,4.348C16.115,4.186 16.16,4.721 16.103,4.994C15.913,5.893 14.698,5.615 14.565,4.814C14.481,4.314 14.155,4.214 13.908,4.676C13.788,4.899 13.887,5.326 13.662,5.481C13.281,5.744 13.008,4.92 13.003,4.674Z" style="fill:rgb(0,127,177);fill-rule:nonzero;"/>
        <path d="M22.982,7.112L22.981,7.112C22.84,6.266 22.389,5.496 22.475,5.062C22.597,4.455 22.394,3.714 21.867,3.598C21.34,3.482 21.137,4.703 20.853,4.599C20.569,4.496 19.839,4.241 19.92,3.598C20.001,2.954 20.042,2.556 19.595,2.39C19.149,2.224 18.92,2.106 18.865,2.39C18.865,2.39 18.378,4.658 18.865,5.266C19.352,5.875 19.92,6.078 20.528,6.037C21.137,5.997 22.395,5.647 21.705,6.917C21.705,6.917 21.373,7.203 20.886,7.066C20.4,6.929 18.407,5.834 18.087,6.823L17.768,7.812C17.768,7.812 17.19,9.699 19.122,9.284C21.053,8.869 21.753,9.348 22.316,8.998C22.879,8.648 23.253,8.375 22.982,7.112Z" style="fill:rgb(0,127,177);fill-rule:nonzero;"/>
    </g>
    <g id="Group-2" serif:id="Group 2">
        <g transform="matrix(0.8125,0,0,0.765625,4.30939,-0.25)">
            <path d="M21.308,25.143L23.769,25.143L23.769,22.857L16.385,16L9,22.857L9,25.143L11.462,25.143L16.385,20.571L21.308,25.143Z" style="fill:rgb(255,173,0);"/>
        </g>
        <g transform="matrix(0.8125,0,0,0.765625,4.30939,4.75)">
            <path d="M21.308,25.143L23.769,25.143L23.769,22.857L16.385,16L9,22.857L9,25.143L11.462,25.143L16.385,20.571L21.308,25.143Z" style="fill:rgb(255,173,0);"/>
        </g>
    </g>
</svg>
